<svg width="156" height="96" viewBox="0 0 156 96" fill="none" xmlns="http://www.w3.org/2000/svg">
<path d="M63.6836 0C76.5343 0.0001263 87.5871 7.69011 92.4961 18.7188C96.3675 16.972 100.663 16.0001 105.187 16C122.247 16 136.078 29.83 136.078 46.8906C136.078 49.1275 135.837 51.3082 135.386 53.4102C146.551 53.9393 155.441 63.158 155.441 74.4541C155.441 86.0902 146.008 95.5232 134.372 95.5234C133.979 95.5234 133.587 95.5115 133.199 95.4902V95.54H30.2578V95.5215C30.2049 95.5218 30.1516 95.5244 30.0986 95.5244C13.4756 95.5242 0 82.0479 0 65.4248C0.000195851 48.8019 13.4757 35.3263 30.0986 35.3262C30.8719 35.3262 31.6388 35.3548 32.3975 35.4121C32.2408 34.1381 32.1582 32.8408 32.1582 31.5244C32.1582 14.1138 46.273 0 63.6836 0Z" fill="white"/>
</svg>
